<?xml version="1.0" encoding="utf-8"?>
<!-- Generator: Adobe Illustrator 10, SVG Export Plug-In . SVG Version: 3.0.0 Build 76)  -->
<!DOCTYPE svg PUBLIC "-//W3C//DTD SVG 1.0//EN"    "http://www.w3.org/TR/2001/REC-SVG-20010904/DTD/svg10.dtd" [
	<!ENTITY ns_flows "http://ns.adobe.com/Flows/1.0/">
	<!ENTITY ns_svg "http://www.w3.org/2000/svg">
	<!ENTITY ns_xlink "http://www.w3.org/1999/xlink">
]>
<svg  xmlns="&ns_svg;" xmlns:xlink="&ns_xlink;" xmlns:a="http://ns.adobe.com/AdobeSVGViewerExtensions/3.0/"
	 width="148.425" height="84.761" viewBox="0 0 148.425 84.761" style="overflow:visible;enable-background:new 0 0 148.425 84.761"
	 xml:space="preserve">
	<g id="Layer_1">
		<g id="Layer_1_3_">
			<g id="Layer_1_2_">
				<g id="Layer_1_1_">
					<g>
						<path style="fill:#FFFFFF;" d="M84.262,42.38c0,23.131-18.751,41.881-41.881,41.881C19.251,84.261,0.5,65.511,0.5,42.38
							C0.5,19.251,19.251,0.5,42.381,0.5C65.511,0.5,84.262,19.251,84.262,42.38z"/>
					</g>
					<g>
						<path d="M0,42.38c0,23.37,19.012,42.381,42.381,42.381c23.369,0,42.381-19.012,42.381-42.381C84.762,19.012,65.75,0,42.381,0
							C19.012,0,0,19.012,0,42.38z M1,42.38C1,19.563,19.563,1,42.381,1c22.818,0,41.381,18.563,41.381,41.38
							c0,22.819-18.563,41.381-41.381,41.381C19.563,83.761,1,65.199,1,42.38z"/>
					</g>
					<g>
						<path d="M64.263,41.733v0.85h84.162v-0.85H64.263z"/>
					</g>
					<g>
						<path d="M57.345,15.231c0,1.137-0.922,2.059-2.059,2.059c-1.137,0-2.059-0.922-2.059-2.059s0.922-2.059,2.059-2.059
							C56.423,13.172,57.345,14.095,57.345,15.231z"/>
					</g>
					<g>
						<path d="M52.727,15.231c0,1.411,1.148,2.559,2.559,2.559c1.411,0,2.559-1.148,2.559-2.559s-1.148-2.559-2.559-2.559
							C53.875,12.672,52.727,13.82,52.727,15.231z M53.727,15.231c0-0.86,0.699-1.559,1.559-1.559c0.86,0,1.559,0.699,1.559,1.559
							s-0.699,1.559-1.559,1.559C54.426,16.79,53.727,16.091,53.727,15.231z"/>
					</g>
					<g>
						<g style="adobe-knockout:true;">
							<g style="adobe-knockout:false;enable-background:new    ;">
								<path style="fill:#FFFFFF;" d="M51.226,23.597l-3.144,0.345l-0.017-0.109l3.451-3.251c0.956-1.248,1.912-2.496,2.868-3.744
									c-0.344,1.534-0.688,3.068-1.032,4.602l-0.279,4.733l-0.081,0.063L51.226,23.597z"/>
							</g>
						</g>
						<g style="adobe-knockout:true;">
							<g style="adobe-knockout:false;enable-background:new    ;">
								<path d="M42.032,42.095l0.906,0.423l9.065-19.402l-0.906-0.423L42.032,42.095z"/>
							</g>
							<g style="adobe-knockout:false;enable-background:new    ;">
								<path d="M51.226,23.597l-3.144,0.345l-0.017-0.109l3.451-3.251c0.956-1.248,1.912-2.496,2.868-3.744
									c-0.344,1.534-0.688,3.068-1.032,4.602l-0.279,4.733l-0.081,0.063L51.226,23.597z"/>
							</g>
						</g>
					</g>
					<g>
						<g style="adobe-knockout:true;">
							<g style="adobe-knockout:false;enable-background:new    ;">
								<path style="fill:#FFFFFF;" d="M58.282,24.133l-2.077,2.385l-0.086-0.069l0.332-4.729c-0.144-1.562-0.288-3.131-0.431-4.696
									c0.787,1.36,1.575,2.721,2.362,4.082l3.004,3.668l-0.016,0.102L58.282,24.133z"/>
							</g>
						</g>
						<g style="adobe-knockout:true;">
							<g style="adobe-knockout:false;enable-background:new    ;">
								<path d="M57.573,23.555l5.935,18.652l0.953-0.303l-5.935-18.652L57.573,23.555z"/>
							</g>
							<g style="adobe-knockout:false;enable-background:new    ;">
								<path d="M58.282,24.133l-2.077,2.385l-0.086-0.069l0.332-4.729c-0.144-1.562-0.288-3.131-0.431-4.696
									c0.787,1.36,1.575,2.721,2.362,4.082l3.004,3.668l-0.016,0.102L58.282,24.133z"/>
							</g>
						</g>
					</g>
					<g>
						<g style="adobe-knockout:true;">
							<g style="adobe-knockout:false;enable-background:new    ;">
								<path style="fill:#FFFFFF;" d="M63.596,18.763l0.558,3.113L64.046,21.9l-3.479-3.221c-1.31-0.869-2.621-1.737-3.931-2.606
									c1.554,0.239,3.107,0.478,4.661,0.716l4.741-0.043l0.069,0.076L63.596,18.763z"/>
							</g>
						</g>
						<g style="adobe-knockout:true;">
							<g style="adobe-knockout:false;enable-background:new    ;">
								<path d="M62.703,18.953l61.602,23.819l0.36-0.933L63.063,18.021L62.703,18.953z"/>
							</g>
							<g style="adobe-knockout:false;enable-background:new    ;">
								<path d="M63.596,18.763l0.558,3.113L64.046,21.9l-3.479-3.221c-1.31-0.869-2.621-1.737-3.931-2.606
									c1.554,0.239,3.107,0.478,4.661,0.716l4.741-0.043l0.069,0.076L63.596,18.763z"/>
							</g>
						</g>
					</g>
					<g style="enable-background:new    ;">
						<path d="M43.408,27.8l0.004,1.032c0.301-0.472,0.565-0.786,0.792-0.941c0.227-0.154,0.446-0.232,0.656-0.232
							c0.18,0,0.324,0.056,0.432,0.168c0.107,0.112,0.162,0.27,0.162,0.474c0,0.217-0.053,0.386-0.16,0.506s-0.236,0.18-0.387,0.18
							c-0.168,0-0.314-0.054-0.438-0.164c-0.124-0.108-0.197-0.17-0.219-0.183c-0.032-0.019-0.068-0.029-0.109-0.029
							c-0.094,0-0.183,0.036-0.267,0.107c-0.133,0.111-0.234,0.269-0.302,0.474c-0.104,0.316-0.155,0.664-0.155,1.045l0.004,1.05
							l0.001,0.277c0,0.186,0.011,0.304,0.034,0.356c0.039,0.088,0.096,0.152,0.172,0.193c0.076,0.041,0.206,0.066,0.387,0.076
							v0.172h-2.484V32.19c0.202-0.016,0.338-0.071,0.409-0.165c0.071-0.093,0.107-0.34,0.107-0.741v-2.516
							c0-0.264-0.013-0.432-0.04-0.505c-0.033-0.092-0.081-0.16-0.144-0.203s-0.173-0.073-0.332-0.089V27.8H43.408z"/>
					</g>
					<g style="enable-background:new    ;">
						<path d="M65.041,26.802l0.004,1.032c0.301-0.472,0.565-0.786,0.792-0.941c0.227-0.154,0.445-0.232,0.656-0.232
							c0.18,0,0.324,0.056,0.432,0.168c0.108,0.112,0.162,0.27,0.162,0.474c0,0.217-0.054,0.386-0.16,0.506
							c-0.107,0.12-0.236,0.18-0.387,0.18c-0.168,0-0.314-0.054-0.438-0.164c-0.124-0.108-0.197-0.17-0.219-0.183
							c-0.032-0.019-0.068-0.029-0.109-0.029c-0.094,0-0.183,0.036-0.268,0.107c-0.133,0.111-0.233,0.269-0.301,0.474
							c-0.104,0.316-0.156,0.664-0.156,1.045l0.005,1.05l0.001,0.277c0,0.186,0.011,0.304,0.034,0.356
							c0.039,0.088,0.097,0.152,0.173,0.193c0.076,0.041,0.205,0.066,0.387,0.076v0.172h-2.484v-0.172
							c0.202-0.016,0.338-0.071,0.409-0.165c0.071-0.093,0.106-0.34,0.106-0.741v-2.516c0-0.264-0.013-0.432-0.04-0.505
							c-0.033-0.092-0.082-0.16-0.144-0.203s-0.173-0.073-0.332-0.089v-0.172H65.041z"/>
					</g>
					<g style="enable-background:new    ;">
						<path d="M67.947,29.778l0.965-0.469h0.097v3.352c0,0.223,0.009,0.363,0.028,0.417s0.057,0.097,0.115,0.126
							c0.059,0.029,0.178,0.046,0.357,0.05v0.109h-1.484v-0.109c0.184-0.004,0.303-0.02,0.356-0.048
							c0.053-0.028,0.091-0.066,0.112-0.115c0.021-0.048,0.032-0.191,0.032-0.431v-2.141c0-0.29-0.01-0.475-0.029-0.558
							c-0.014-0.062-0.039-0.108-0.075-0.138c-0.036-0.029-0.079-0.044-0.13-0.044c-0.072,0-0.172,0.03-0.3,0.091L67.947,29.778z"/>
					</g>
					<g style="enable-background:new    ;">
						<path d="M91.659,20.8l0.005,1.032c0.301-0.472,0.564-0.786,0.792-0.941c0.227-0.154,0.445-0.232,0.656-0.232
							c0.181,0,0.324,0.056,0.432,0.168c0.108,0.112,0.162,0.27,0.162,0.474c0,0.217-0.054,0.386-0.16,0.506s-0.235,0.18-0.387,0.18
							c-0.168,0-0.313-0.054-0.438-0.164c-0.124-0.108-0.196-0.17-0.219-0.183c-0.032-0.019-0.068-0.029-0.109-0.029
							c-0.094,0-0.183,0.036-0.268,0.107c-0.133,0.111-0.233,0.269-0.302,0.474c-0.104,0.316-0.155,0.664-0.155,1.045l0.005,1.05
							l0.001,0.277c0,0.186,0.011,0.304,0.034,0.356c0.039,0.088,0.097,0.152,0.173,0.193c0.076,0.041,0.205,0.066,0.387,0.076
							v0.172h-2.484V25.19c0.202-0.016,0.338-0.071,0.409-0.165c0.07-0.093,0.106-0.34,0.106-0.741v-2.516
							c0-0.264-0.013-0.432-0.04-0.505c-0.033-0.092-0.081-0.16-0.144-0.203s-0.173-0.073-0.332-0.089V20.8H91.659z"/>
					</g>
					<g style="enable-background:new    ;">
						<path d="M96.605,26.595l-0.277,0.768h-2.332v-0.109c0.688-0.629,1.173-1.143,1.454-1.541c0.28-0.398,0.421-0.763,0.421-1.093
							c0-0.252-0.077-0.46-0.23-0.623c-0.154-0.163-0.338-0.244-0.552-0.244c-0.195,0-0.37,0.057-0.524,0.171
							c-0.155,0.114-0.27,0.281-0.343,0.501h-0.108c0.049-0.36,0.174-0.636,0.375-0.829c0.202-0.192,0.453-0.289,0.756-0.289
							c0.32,0,0.589,0.104,0.805,0.311c0.215,0.207,0.322,0.451,0.322,0.732c0,0.201-0.047,0.402-0.141,0.604
							c-0.145,0.316-0.379,0.651-0.703,1.005c-0.487,0.531-0.789,0.85-0.906,0.958h1.024c0.209,0,0.354-0.008,0.438-0.023
							s0.16-0.047,0.228-0.095s0.126-0.116,0.177-0.204H96.605z"/>
					</g>
					<g style="enable-background:new    ;">
						<path d="M26.187,47.988h-1.773l-2.249-3.094c-0.163,0.007-0.295,0.01-0.396,0.01c-0.042,0-0.086-0.001-0.134-0.002
							c-0.048-0.002-0.097-0.004-0.148-0.008v1.922c0,0.414,0.045,0.671,0.137,0.771c0.123,0.142,0.309,0.213,0.557,0.213h0.259
							v0.188h-2.844V47.8h0.25c0.28,0,0.48-0.09,0.601-0.271c0.068-0.1,0.103-0.338,0.103-0.713v-4.281
							c0-0.414-0.045-0.671-0.137-0.771c-0.127-0.142-0.315-0.213-0.566-0.213h-0.25v-0.188h2.415c0.704,0,1.223,0.052,1.557,0.154
							s0.618,0.291,0.851,0.566s0.35,0.604,0.35,0.984c0,0.407-0.133,0.761-0.4,1.061s-0.68,0.512-1.24,0.635l1.375,1.897
							c0.312,0.436,0.581,0.725,0.806,0.867s0.518,0.233,0.879,0.272V47.988z M21.486,44.582c0.061,0,0.114,0.001,0.159,0.002
							c0.045,0.002,0.082,0.003,0.111,0.003c0.624,0,1.094-0.137,1.411-0.409c0.316-0.273,0.475-0.621,0.475-1.045
							c0-0.412-0.128-0.748-0.383-1.007c-0.256-0.258-0.595-0.388-1.016-0.388c-0.187,0-0.439,0.037-0.757,0.109V44.582z"/>
					</g>
					<g style="enable-background:new    ;">
						<path style="fill:#008837;" d="M52.789,38.023v1.694c0,0.238,0.018,0.4,0.055,0.486s0.093,0.148,0.169,0.188
							c0.076,0.04,0.226,0.06,0.448,0.06v0.172h-2.609v-0.172c0.208-0.007,0.362-0.064,0.462-0.174c0.066-0.076,0.1-0.273,0.1-0.592
							v-4.812c0-0.326-0.039-0.535-0.116-0.625c-0.077-0.09-0.226-0.143-0.447-0.156V33.92h1.938v0.601
							c0.159-0.234,0.322-0.403,0.487-0.508c0.237-0.155,0.496-0.233,0.775-0.233c0.334,0,0.639,0.106,0.914,0.318
							s0.483,0.504,0.626,0.877c0.143,0.373,0.214,0.774,0.214,1.205c0,0.463-0.074,0.886-0.222,1.269s-0.362,0.674-0.643,0.875
							c-0.281,0.2-0.594,0.301-0.938,0.301c-0.25,0-0.484-0.056-0.702-0.166C53.138,38.373,52.968,38.228,52.789,38.023z
							 M52.789,37.527c0.278,0.398,0.576,0.597,0.894,0.597c0.175,0,0.319-0.093,0.432-0.278c0.168-0.274,0.252-0.796,0.252-1.565
							c0-0.789-0.092-1.328-0.277-1.618c-0.123-0.192-0.288-0.289-0.495-0.289c-0.327,0-0.596,0.238-0.806,0.714V37.527z"/>
					</g>
					<g style="enable-background:new    ;">
						<path d="M124.295,38.515h1.516V38.07h-1.516V38.515z"/>
						<path d="M128.622,36.875v3.453c0,0.171,0.012,0.281,0.035,0.33c0.023,0.048,0.061,0.086,0.11,0.113s0.147,0.041,0.292,0.041
							v0.109H127.7v-0.109h0.056c0.111,0,0.194-0.016,0.252-0.047c0.039-0.021,0.07-0.06,0.095-0.115
							c0.023-0.055,0.035-0.163,0.035-0.322v-1.166c-0.178,0.214-0.333,0.36-0.466,0.439c-0.134,0.078-0.271,0.117-0.414,0.117
							c-0.26,0-0.492-0.118-0.696-0.354s-0.307-0.552-0.307-0.949c0-0.455,0.135-0.825,0.405-1.111s0.597-0.429,0.979-0.429
							c0.111,0,0.215,0.016,0.309,0.046s0.179,0.078,0.253,0.139c0.112-0.054,0.22-0.116,0.323-0.186H128.622z M128.137,38.978
							v-1.255c0-0.146-0.02-0.261-0.058-0.344c-0.038-0.084-0.106-0.155-0.205-0.213c-0.099-0.059-0.209-0.088-0.333-0.088
							c-0.221,0-0.409,0.093-0.566,0.277c-0.157,0.185-0.236,0.465-0.236,0.841c0,0.36,0.08,0.634,0.24,0.82
							c0.16,0.187,0.354,0.28,0.58,0.28c0.116,0,0.22-0.025,0.312-0.074C127.962,39.172,128.051,39.091,128.137,38.978z"/>
						<path d="M133.109,39.64h-1.064l-1.352-1.859c-0.098,0.004-0.177,0.006-0.238,0.006c-0.024,0-0.052,0-0.08-0.001
							s-0.059-0.002-0.089-0.004v1.156c0,0.25,0.027,0.405,0.082,0.465c0.074,0.086,0.185,0.129,0.333,0.129h0.155v0.109h-1.703
							v-0.109h0.149c0.167,0,0.287-0.055,0.359-0.164c0.041-0.06,0.062-0.204,0.062-0.43v-2.57c0-0.25-0.027-0.404-0.082-0.465
							c-0.076-0.086-0.188-0.129-0.339-0.129h-0.149v-0.109h1.448c0.422,0,0.733,0.031,0.934,0.092c0.2,0.062,0.37,0.175,0.51,0.34
							c0.14,0.166,0.21,0.363,0.21,0.592c0,0.244-0.08,0.457-0.239,0.637c-0.159,0.18-0.405,0.307-0.739,0.381l0.823,1.138
							c0.188,0.262,0.348,0.437,0.482,0.522c0.135,0.086,0.311,0.141,0.527,0.165V39.64z M130.286,37.593
							c0.037,0,0.068,0,0.096,0.001s0.05,0.001,0.066,0.001c0.376,0,0.658-0.082,0.849-0.245c0.19-0.164,0.286-0.372,0.286-0.625
							c0-0.248-0.077-0.448-0.23-0.603c-0.154-0.155-0.357-0.232-0.611-0.232c-0.112,0-0.264,0.021-0.455,0.062V37.593z"/>
						<path d="M134.741,35.468l-1.445,4.25h-0.234l1.445-4.25H134.741z"/>
						<path d="M134.748,37.312c0.072-0.027,0.133-0.041,0.18-0.041c0.059,0,0.105,0.012,0.14,0.035s0.06,0.059,0.075,0.105
							s0.023,0.157,0.023,0.33v2.539c0,0.195-0.011,0.317-0.031,0.365s-0.049,0.083-0.087,0.104
							c-0.076,0.043-0.169,0.063-0.276,0.062h-0.074v0.109h1.406v-0.109c-0.146,0-0.247-0.015-0.303-0.044
							c-0.056-0.03-0.095-0.069-0.117-0.12s-0.033-0.167-0.033-0.352v-0.819c0.098,0.089,0.186,0.149,0.265,0.179
							c0.105,0.042,0.23,0.062,0.375,0.062c0.333,0,0.609-0.124,0.828-0.372c0.267-0.303,0.399-0.685,0.399-1.148
							c0-0.414-0.11-0.75-0.332-1.007c-0.18-0.211-0.405-0.316-0.675-0.316c-0.155,0-0.302,0.047-0.442,0.142
							c-0.14,0.094-0.279,0.259-0.418,0.494v-0.62h-0.111l-0.826,0.328L134.748,37.312z M136,37.367
							c0.092-0.047,0.185-0.07,0.278-0.07c0.172,0,0.32,0.076,0.446,0.229c0.18,0.22,0.27,0.536,0.27,0.945
							c0,0.361-0.079,0.641-0.237,0.84c-0.122,0.152-0.28,0.229-0.476,0.229c-0.162,0-0.297-0.043-0.403-0.129
							s-0.174-0.185-0.201-0.298c-0.018-0.068-0.026-0.211-0.026-0.427v-1.001C135.812,37.507,135.928,37.402,136,37.367z"/>
					</g>
					<g>
						<g style="adobe-knockout:true;">
							<g style="adobe-knockout:false;enable-background:new    ;">
								<path style="fill:#FFFFFF;" d="M12.131,58.892l2.754,1.554l-0.05,0.099l-4.699,0.629c-1.504,0.455-3.009,0.912-4.513,1.367
									c1.174-1.045,2.349-2.09,3.522-3.137l2.988-3.681l0.103-0.005L12.131,58.892z"/>
							</g>
						</g>
						<g style="adobe-knockout:true;">
							<g style="adobe-knockout:false;enable-background:new    ;">
								<path d="M11.264,58.912l0.398,0.711l30.334-17l-0.398-0.712L11.264,58.912z"/>
							</g>
							<g style="adobe-knockout:false;enable-background:new    ;">
								<path d="M12.008,58.96l2.247,1.269l-0.041,0.08l-3.833,0.512c-1.227,0.372-2.454,0.744-3.681,1.116
									c0.958-0.854,1.916-1.705,2.873-2.559l2.438-3.002l0.084-0.004L12.008,58.96z"/>
							</g>
						</g>
					</g>
					<g style="enable-background:new    ;">
						<path style="fill:#FF0000;" d="M126.28,42.158c0,1.136-0.922,2.058-2.059,2.058c-1.138,0-2.06-0.922-2.06-2.058
							c0-1.137,0.922-2.059,2.06-2.059C125.358,40.099,126.28,41.021,126.28,42.158z"/>
					</g>
					<g style="enable-background:new    ;">
						<path style="fill:#FF0000;" d="M121.662,42.158c0,1.411,1.148,2.558,2.561,2.558s2.559-1.147,2.559-2.558
							c0-1.411-1.146-2.559-2.559-2.559S121.662,40.747,121.662,42.158z M122.662,42.158c0-0.86,0.699-1.559,1.561-1.559
							c0.859,0,1.559,0.699,1.559,1.559c0,0.859-0.699,1.558-1.559,1.558C123.361,43.716,122.662,43.017,122.662,42.158z"/>
					</g>
					<g style="adobe-knockout:true;">
						<g style="adobe-knockout:false;enable-background:new    ;">
							<path style="fill:#0F8C37;" d="M43.576,42.152h13.282"/>
						</g>
						<g style="adobe-knockout:false;enable-background:new    ;">
							<path style="fill:#008837;" d="M43.576,41.788v0.728h13.282v-0.728H43.576z"/>
						</g>
						<g style="adobe-knockout:false;enable-background:new    ;">
							<path style="fill:#008837;" d="M56.066,42.151l-1.195-1.966l0.067-0.044l3.205,1.272c1.117,0.246,2.234,0.491,3.35,0.737
								c-1.116,0.246-2.233,0.491-3.35,0.737l-3.205,1.272l-0.067-0.033L56.066,42.151z"/>
						</g>
					</g>
					<g style="enable-background:new    ;">
						<path d="M44.453,42.14c0,1.137-0.922,2.059-2.059,2.059c-1.137,0-2.059-0.922-2.059-2.059c0-1.137,0.922-2.059,2.059-2.059
							C43.531,40.081,44.453,41.003,44.453,42.14z"/>
					</g>
					<g style="enable-background:new    ;">
						<path d="M39.835,42.14c0,1.41,1.148,2.559,2.559,2.559s2.559-1.146,2.559-2.559s-1.148-2.559-2.559-2.559
							S39.835,40.729,39.835,42.14z M40.835,42.14c0-0.86,0.699-1.559,1.559-1.559s1.559,0.699,1.559,1.559
							c0,0.859-0.699,1.559-1.559,1.559S40.835,43,40.835,42.14z"/>
					</g>
					<g style="adobe-knockout:true;">
						<g style="adobe-knockout:false;enable-background:new    ;">
							<path style="fill:#FF0000;" d="M42.517,45.294l0.002,1l73.579-0.119l-0.002-1L42.517,45.294z"/>
						</g>
						<g style="adobe-knockout:false;enable-background:new    ;">
							<path style="fill:#FF0000;" d="M115.333,45.675l-1.646-2.701l0.092-0.062l4.406,1.75c1.535,0.338,3.068,0.676,4.604,1.014
								c-1.535,0.341-3.068,0.678-4.604,1.017l-4.406,1.75l-0.092-0.046L115.333,45.675z"/>
						</g>
					</g>
					<g style="enable-background:new    ;">
						<path style="fill:#008837;" d="M65.892,42.158c0,1.136-0.922,2.058-2.059,2.058s-2.059-0.922-2.059-2.058
							c0-1.137,0.922-2.059,2.059-2.059S65.892,41.021,65.892,42.158z"/>
					</g>
					<g style="enable-background:new    ;">
						<path style="fill:#008837;" d="M61.274,42.158c0,1.411,1.148,2.558,2.559,2.558s2.559-1.147,2.559-2.558
							c0-1.411-1.148-2.559-2.559-2.559S61.274,40.747,61.274,42.158z M62.274,42.158c0-0.86,0.699-1.559,1.559-1.559
							s1.559,0.699,1.559,1.559c0,0.859-0.699,1.558-1.559,1.558S62.274,43.017,62.274,42.158z"/>
					</g>
					<g style="enable-background:new    ;">
						<path d="M68.279,36.931v3.453c0,0.171,0.012,0.281,0.035,0.33c0.023,0.048,0.06,0.086,0.11,0.113
							c0.05,0.027,0.147,0.041,0.292,0.041v0.109h-1.359v-0.109h0.056c0.11,0,0.194-0.016,0.251-0.047
							c0.039-0.021,0.071-0.06,0.094-0.115c0.024-0.055,0.036-0.163,0.036-0.322v-1.166c-0.178,0.214-0.333,0.36-0.466,0.439
							c-0.133,0.078-0.271,0.117-0.414,0.117c-0.26,0-0.492-0.118-0.696-0.354c-0.205-0.236-0.307-0.552-0.307-0.949
							c0-0.455,0.135-0.825,0.405-1.111c0.271-0.286,0.597-0.429,0.979-0.429c0.112,0,0.215,0.016,0.309,0.046
							c0.094,0.031,0.179,0.078,0.253,0.139c0.112-0.054,0.22-0.116,0.323-0.186H68.279z M67.794,39.035v-1.255
							c0-0.146-0.02-0.261-0.058-0.344c-0.038-0.084-0.106-0.155-0.205-0.213c-0.098-0.059-0.209-0.088-0.333-0.088
							c-0.221,0-0.409,0.093-0.567,0.277c-0.157,0.185-0.236,0.465-0.236,0.841c0,0.36,0.08,0.634,0.24,0.82
							c0.161,0.187,0.354,0.28,0.58,0.28c0.116,0,0.22-0.025,0.312-0.074C67.62,39.229,67.708,39.148,67.794,39.035z"/>
					</g>
					<g style="enable-background:new    ;">
						<path style="fill:#FFFFFF;" d="M95.803,63.511H70.922V48.768h24.881V63.511z"/>
					</g>
					<g style="enable-background:new    ;">
						<path style="fill:#FF0000;" d="M68.845,62.451v0.188c-0.493-0.248-0.904-0.538-1.234-0.87c-0.47-0.473-0.832-1.03-1.087-1.672
							c-0.255-0.643-0.382-1.31-0.382-2c0-1.011,0.25-1.932,0.749-2.765c0.5-0.833,1.151-1.429,1.954-1.787v0.188
							c-0.403,0.223-0.734,0.525-0.994,0.91c-0.259,0.386-0.453,0.873-0.581,1.464s-0.191,1.208-0.191,1.851
							c0,0.699,0.054,1.334,0.162,1.904c0.085,0.451,0.188,0.812,0.31,1.084c0.121,0.273,0.284,0.535,0.489,0.786
							C68.246,61.982,68.514,62.222,68.845,62.451z"/>
					</g>
					<g style="enable-background:new    ;">
						<path style="fill:#FF0000;" d="M75.829,60.498h-1.773l-2.249-3.094c-0.162,0.007-0.294,0.01-0.396,0.01
							c-0.042,0-0.086-0.001-0.134-0.002c-0.048-0.002-0.097-0.004-0.148-0.008v1.922c0,0.414,0.046,0.671,0.137,0.771
							c0.124,0.142,0.31,0.213,0.558,0.213h0.259v0.188h-2.844V60.31h0.249c0.28,0,0.481-0.09,0.602-0.271
							c0.068-0.1,0.103-0.338,0.103-0.713v-4.281c0-0.414-0.046-0.671-0.137-0.771c-0.127-0.142-0.316-0.213-0.567-0.213h-0.249
							v-0.188h2.415c0.704,0,1.223,0.052,1.557,0.154s0.618,0.291,0.851,0.566s0.35,0.604,0.35,0.984c0,0.407-0.134,0.761-0.4,1.061
							s-0.68,0.512-1.24,0.635l1.375,1.897c0.312,0.436,0.581,0.725,0.806,0.867s0.518,0.233,0.879,0.272V60.498z M71.128,57.091
							c0.061,0,0.114,0.001,0.159,0.002c0.045,0.002,0.082,0.003,0.111,0.003c0.624,0,1.094-0.137,1.411-0.409
							c0.317-0.273,0.475-0.621,0.475-1.045c0-0.412-0.128-0.748-0.384-1.007s-0.594-0.388-1.015-0.388
							c-0.187,0-0.439,0.037-0.757,0.109V57.091z"/>
					</g>
					<g style="enable-background:new    ;">
						<path style="fill:#FF0000;" d="M78.478,54.73l-0.277,0.768h-2.332v-0.109c0.688-0.629,1.173-1.142,1.454-1.54
							c0.28-0.398,0.421-0.763,0.421-1.093c0-0.253-0.077-0.461-0.23-0.623c-0.154-0.163-0.338-0.244-0.552-0.244
							c-0.195,0-0.37,0.057-0.524,0.171c-0.155,0.114-0.27,0.281-0.343,0.501h-0.108c0.049-0.359,0.174-0.636,0.375-0.828
							c0.202-0.192,0.453-0.289,0.756-0.289c0.32,0,0.589,0.104,0.805,0.311c0.215,0.207,0.322,0.451,0.322,0.732
							c0,0.201-0.047,0.402-0.141,0.604c-0.145,0.316-0.379,0.651-0.703,1.005c-0.487,0.531-0.789,0.851-0.906,0.958h1.024
							c0.209,0,0.354-0.008,0.438-0.023s0.16-0.047,0.228-0.096c0.067-0.047,0.126-0.115,0.177-0.203H78.478z"/>
					</g>
					<g style="enable-background:new    ;">
						<path style="fill:#FF0000;" d="M81.548,53.544l-2.406,7.094h-0.391l2.406-7.094H81.548z"/>
						<path style="fill:#FF0000;" d="M81.514,56.466l1.391-0.547h0.188v1.029c0.23-0.393,0.461-0.667,0.693-0.824
							c0.231-0.157,0.476-0.236,0.731-0.236c0.447,0,0.82,0.176,1.119,0.528c0.366,0.431,0.55,0.991,0.55,1.683
							c0,0.773-0.221,1.412-0.661,1.918c-0.363,0.414-0.82,0.621-1.372,0.621c-0.24,0-0.448-0.035-0.623-0.104
							c-0.13-0.049-0.275-0.148-0.438-0.296v1.368c0,0.308,0.019,0.504,0.056,0.587s0.102,0.149,0.193,0.199
							c0.092,0.049,0.259,0.073,0.501,0.073v0.172h-2.375v-0.172h0.125c0.184,0.003,0.341-0.031,0.472-0.104
							c0.063-0.036,0.112-0.094,0.147-0.175c0.035-0.08,0.053-0.284,0.053-0.612v-4.234c0-0.283-0.013-0.464-0.039-0.541
							c-0.026-0.076-0.067-0.134-0.124-0.172c-0.057-0.039-0.134-0.059-0.231-0.059c-0.078,0-0.177,0.023-0.297,0.068L81.514,56.466
							z M83.092,57.238v1.674c0,0.362,0.015,0.601,0.044,0.715c0.045,0.189,0.155,0.355,0.331,0.5
							c0.177,0.143,0.398,0.215,0.667,0.215c0.322,0,0.584-0.127,0.784-0.382c0.262-0.333,0.393-0.801,0.393-1.405
							c0-0.686-0.148-1.212-0.446-1.581c-0.206-0.255-0.451-0.382-0.736-0.382c-0.154,0-0.308,0.039-0.46,0.117
							C83.552,56.767,83.361,56.944,83.092,57.238z"/>
					</g>
					<g style="enable-background:new    ;">
						<path style="fill:#FF0000;" d="M89.138,54.73c-0.051,0.088-0.109,0.156-0.177,0.203c-0.067,0.049-0.144,0.08-0.228,0.096
							s-0.229,0.023-0.438,0.023h-1.024c0.117-0.107,0.419-0.427,0.906-0.958c0.324-0.354,0.559-0.688,0.703-1.005
							c0.094-0.201,0.141-0.402,0.141-0.604c0-0.281-0.107-0.525-0.322-0.732c-0.216-0.207-0.484-0.311-0.805-0.311
							c-0.303,0-0.554,0.097-0.756,0.289c-0.201,0.192-0.326,0.469-0.375,0.828h0.108c0.073-0.22,0.188-0.387,0.343-0.501
							c0.154-0.114,0.329-0.171,0.524-0.171c0.214,0,0.397,0.081,0.552,0.244c0.153,0.162,0.23,0.37,0.23,0.623
							c0,0.33-0.141,0.694-0.421,1.093c-0.281,0.398-0.766,0.911-1.454,1.54v0.109h2.332l0.277-0.768H89.138z"/>
					</g>
					<g style="enable-background:new    ;">
						<path style="fill:#FF0000;" d="M89.732,53.732v-0.188c0.496,0.244,0.909,0.533,1.239,0.865
							c0.467,0.477,0.827,1.034,1.082,1.675s0.382,1.308,0.382,2.002c0,1.011-0.249,1.933-0.747,2.765
							c-0.498,0.833-1.149,1.429-1.956,1.787v-0.188c0.403-0.226,0.735-0.529,0.996-0.913s0.454-0.871,0.58-1.464
							c0.126-0.592,0.189-1.21,0.189-1.853c0-0.695-0.055-1.33-0.162-1.904c-0.082-0.45-0.185-0.812-0.308-1.082
							s-0.286-0.532-0.489-0.783S90.066,53.96,89.732,53.732z"/>
					</g>
					<g style="enable-background:new    ;">
						<path style="fill:#FF0000;" d="M94.953,60.038v1.694c0,0.238,0.018,0.4,0.055,0.486s0.093,0.148,0.169,0.188
							s0.226,0.06,0.448,0.06v0.172h-2.609v-0.172c0.207-0.007,0.361-0.064,0.462-0.174c0.067-0.076,0.101-0.273,0.101-0.592v-4.812
							c0-0.326-0.039-0.535-0.115-0.625c-0.077-0.091-0.227-0.143-0.447-0.156v-0.172h1.938v0.601
							c0.159-0.234,0.321-0.403,0.487-0.508c0.237-0.155,0.495-0.233,0.774-0.233c0.334,0,0.639,0.105,0.914,0.318
							c0.273,0.211,0.482,0.504,0.625,0.877c0.144,0.373,0.215,0.774,0.215,1.205c0,0.463-0.074,0.885-0.222,1.268
							s-0.362,0.675-0.644,0.875c-0.28,0.2-0.593,0.301-0.938,0.301c-0.25,0-0.484-0.056-0.701-0.166
							C95.302,60.388,95.131,60.243,94.953,60.038z M94.953,59.542c0.278,0.397,0.576,0.597,0.894,0.597
							c0.175,0,0.319-0.093,0.433-0.278c0.168-0.274,0.252-0.796,0.252-1.565c0-0.788-0.092-1.328-0.277-1.617
							c-0.123-0.193-0.287-0.289-0.494-0.289c-0.328,0-0.596,0.238-0.807,0.714V59.542z"/>
					</g>
				</g>
			</g>
		</g>
	</g>
</svg>
