<?xml version="1.0" encoding="UTF-8"?>
<!DOCTYPE svg PUBLIC "-//W3C//DTD SVG 1.1//EN" "http://www.w3.org/Graphics/SVG/1.1/DTD/svg11.dtd">
<svg xmlns="http://www.w3.org/2000/svg" xmlns:xlink="http://www.w3.org/1999/xlink" version="1.1" width="407px" height="201px" viewBox="-0.5 -0.5 407 201" style="background-color: rgb(255, 255, 255);"><defs><style type="text/css">@media (prefers-color-scheme: dark) {svg { filter: invert(100%) hue-rotate(180deg); }&#xa;image { filter: invert(100%) hue-rotate(180deg) }&#xa;	svg[style^="background-color: rgb(255, 255, 255);"] {		background-color: #121212 !important;	}}</style></defs><g><rect x="101" y="0" width="200" height="200" fill="none" stroke="rgb(0, 0, 0)" pointer-events="all"/><rect x="128.5" y="27.5" width="145" height="145" fill="none" stroke="rgb(0, 0, 0)" pointer-events="all"/><path d="M 6 61.36 L 7.4 61.33 L 9.47 61.26 L 10.99 61.26 L 12.93 61.31 L 15.35 61.37 L 18.66 61.4 L 22.52 61.36 L 26.6 61.27 L 31.7 61.03 L 37.17 60.71 L 42.87 60.3 L 48.6 59.83 L 54.33 59.28 L 59.56 58.62 L 64.66 57.9 L 69.77 57.17 L 74.25 56.5 L 78.22 55.86 L 81.86 55.29 L 85.5 54.77 L 89.13 54.33 L 92.41 54 L 95.46 53.78 L 98.42 53.62 L 101.34 53.55 L 104.23 53.52 L 107.26 53.51 L 110.2 53.5 L 112.89 53.5 L 115.61 53.5 L 118.13 53.5 L 120.58 53.57 L 122.94 53.75 L 125.09 53.97 L 127.03 54.27 L 128.67 54.58 L 130.12 54.91 L 131.36 55.32 L 132.42 55.78 L 133.92 56.58 L 134.86 57.5 L 135.36 58.51 L 135.82 59.48 L 136.31 60.68 L 136.49 61.85 L 136.45 62.91 L 135.57 64.1 L 134.67 64.54 L 130.18 65.13 L 129.83 65.07 L 129.5 64.9 L 129.25 64.63 L 129.11 64.3 L 129.07 63.94 L 129.15 63.58 L 129.33 63.27 L 129.6 63.03 L 129.95 62.9 L 130.31 62.88 L 130.67 62.98 L 130.97 63.18 L 131.18 63.47 L 131.3 63.82 L 131.3 64.18 L 131.18 64.53 L 130.97 64.82 L 130.67 65.02 L 130.31 65.12 L 129.95 65.1 L 129.6 64.96 L 129.33 64.73 L 129.15 64.42 L 129.07 64.06 L 129.11 63.7 L 129.25 63.37 L 129.5 63.1 L 129.83 62.93 L 130.18 62.87 L 130.18 62.87 L 133.16 62.72 L 134.46 62.36 L 134.44 61.27 L 134.09 60.19 L 133.59 58.72 L 133.01 57.84 L 131.85 57.02 L 130.9 56.52 L 129.81 56.05 L 128.45 55.65 L 126.88 55.27 L 124.99 54.96 L 122.87 54.75 L 120.56 54.57 L 118.13 54.5 L 115.61 54.5 L 112.89 54.5 L 110.2 54.5 L 107.26 54.51 L 104.25 54.52 L 101.36 54.55 L 98.48 54.62 L 95.54 54.78 L 92.51 54.99 L 89.26 55.32 L 85.64 55.76 L 82.02 56.29 L 78.39 56.85 L 74.39 57.49 L 69.92 58.17 L 64.79 58.9 L 59.69 59.62 L 54.43 60.3 L 48.68 60.86 L 42.95 61.33 L 37.23 61.77 L 31.75 62.1 L 26.62 62.38 L 22.53 62.5 L 18.66 62.6 L 15.35 62.63 L 12.93 62.69 L 10.99 62.74 L 9.47 62.74 L 7.4 62.67 L 6 62.64 L 5.85 62.62 L 5.71 62.56 L 5.58 62.48 L 5.47 62.36 L 5.41 62.23 L 5.37 62.08 L 5.37 61.92 L 5.41 61.77 L 5.47 61.64 L 5.58 61.52 L 5.71 61.44 L 5.85 61.38 L 6 61.36 L 6 61.36" fill="rgb(0, 0, 0)" stroke="rgb(0, 0, 0)" stroke-miterlimit="10" pointer-events="all"/><path d="M 102 67.88 L 100.52 67.85 L 98.88 68.07 L 97.34 68.34 L 96.41 68.74 L 96.66 69.8 L 97.56 70.6 L 98.54 70.82 L 99.75 70.85 L 101.45 70.87 L 102.49 70.89 L 103.64 70.92 L 104.92 70.96 L 106.26 71 L 107.48 71.02 L 108.64 71.03 L 109.78 71.03 L 110.84 71.03 L 111.87 71.03 L 112.88 71.03 L 114.71 71.01 L 116.72 71.01 L 117.88 71.09 L 119.09 71.21 L 120.25 71.33 L 121.39 71.46 L 122.52 71.66 L 123.58 71.89 L 124.66 72.14 L 125.71 72.38 L 126.79 72.63 L 127.89 72.89 L 129.06 73.23 L 130.15 73.59 L 131.13 73.87 L 132.14 74.22 L 133.78 75.1 L 134.86 76.02 L 135.46 77.05 L 135.8 77.99 L 135.99 79.09 L 135.52 80.36 L 134.47 81.05 L 133.35 81.16 L 129.64 80.19 L 129.38 79.92 L 129.22 79.58 L 129.17 79.2 L 129.25 78.83 L 129.44 78.5 L 129.73 78.26 L 130.08 78.11 L 130.46 78.09 L 130.82 78.19 L 131.14 78.4 L 131.37 78.7 L 131.5 79.05 L 131.5 79.43 L 131.38 79.79 L 131.15 80.1 L 130.84 80.31 L 130.48 80.42 L 130.1 80.4 L 129.75 80.26 L 129.46 80.02 L 129.26 79.7 L 129.17 79.33 L 129.21 78.95 L 129.37 78.61 L 129.63 78.33 L 129.96 78.15 L 130.33 78.08 L 130.71 78.14 L 131.04 78.32 L 131.04 78.32 L 133.63 78.24 L 133.12 77.11 L 132.15 76.36 L 130.61 75.7 L 129.55 75.39 L 128.54 75.05 L 127.47 74.75 L 126.36 74.5 L 125.26 74.25 L 124.24 74.01 L 123.16 73.77 L 122.17 73.55 L 121.18 73.36 L 120.05 73.25 L 118.92 73.14 L 117.75 73.05 L 116.72 72.99 L 114.71 72.99 L 112.88 72.97 L 111.87 72.97 L 110.84 72.97 L 109.78 72.97 L 108.64 72.97 L 107.48 72.98 L 106.26 73 L 104.92 73.04 L 103.64 73.08 L 102.48 73.11 L 100.53 73.14 L 98.98 73.12 L 97.54 72.96 L 96.29 72.44 L 95.29 71.56 L 94.49 70.45 L 94.09 69.09 L 94.61 67.69 L 95.65 66.93 L 97.05 66.48 L 98.67 66.28 L 100.52 66.15 L 102 66.12 L 102.21 66.15 L 102.41 66.22 L 102.58 66.34 L 102.72 66.5 L 102.82 66.69 L 102.87 66.89 L 102.87 67.11 L 102.82 67.31 L 102.72 67.5 L 102.58 67.66 L 102.41 67.78 L 102.21 67.85 L 102 67.88 L 102 67.88" fill="rgb(0, 0, 0)" stroke="rgb(0, 0, 0)" stroke-miterlimit="10" pointer-events="all"/><path d="M 101.54 84.7 L 100.91 85.22 L 100.22 86 L 99.52 87.05 L 100.02 88.06 L 101.31 88.73 L 103.21 89.2 L 104.3 89.37 L 105.35 89.44 L 106.38 89.41 L 107.48 89.27 L 108.68 89.08 L 109.82 88.86 L 111.01 88.69 L 112.4 88.56 L 114.39 88.53 L 116.52 88.49 L 118.71 88.43 L 120.89 88.42 L 123.27 88.5 L 125.81 88.69 L 128.48 89 L 130.91 89.35 L 132.85 89.79 L 134.5 90.32 L 135.98 90.97 L 137.22 91.68 L 138.11 92.36 L 139.06 93.6 L 139.11 94.91 L 138.48 95.77 L 137.46 96.39 L 136.34 96.84 L 135.34 97 L 134.11 97.06 L 129.83 96.63 L 129.54 96.43 L 129.32 96.15 L 129.2 95.81 L 129.2 95.46 L 129.31 95.12 L 129.53 94.84 L 129.82 94.64 L 130.16 94.54 L 130.51 94.56 L 130.84 94.69 L 131.11 94.91 L 131.3 95.21 L 131.38 95.56 L 131.34 95.91 L 131.2 96.24 L 130.95 96.49 L 130.64 96.66 L 130.29 96.72 L 129.94 96.67 L 129.63 96.51 L 129.38 96.25 L 129.23 95.93 L 129.19 95.58 L 129.26 95.23 L 129.44 94.93 L 129.71 94.69 L 130.04 94.56 L 130.39 94.54 L 130.74 94.63 L 130.74 94.63 L 134.41 94.95 L 135.71 94.98 L 136.76 94.67 L 137.58 93.92 L 136.55 92.77 L 135.46 92.05 L 134.14 91.38 L 132.61 90.83 L 130.76 90.4 L 128.36 90.08 L 125.73 89.82 L 123.25 89.68 L 120.92 89.66 L 118.79 89.76 L 116.61 89.95 L 114.5 90.16 L 112.6 90.4 L 111.29 90.56 L 110.2 90.73 L 109.01 90.98 L 107.75 91.22 L 106.46 91.4 L 105.23 91.46 L 104.02 91.4 L 102.84 91.25 L 101.57 91.04 L 100.42 90.69 L 99.43 90.24 L 97.89 89.07 L 97.26 87.47 L 97.59 86.4 L 98.15 85.51 L 98.86 84.66 L 99.8 83.79 L 100.46 83.3 L 100.64 83.19 L 100.84 83.13 L 101.06 83.12 L 101.26 83.16 L 101.46 83.25 L 101.63 83.38 L 101.76 83.55 L 101.85 83.74 L 101.88 83.95 L 101.87 84.16 L 101.8 84.37 L 101.69 84.55 L 101.54 84.7 L 101.54 84.7" fill="rgb(0, 0, 0)" stroke="rgb(0, 0, 0)" stroke-miterlimit="10" pointer-events="all"/><path d="M 102 109.87 L 100.92 109.89 L 99.73 110.09 L 99.36 111.14 L 100.36 112.33 L 101.57 113.1 L 103.08 113.64 L 104.58 113.87 L 106.2 113.75 L 108.41 113.41 L 109.73 113.2 L 111.08 112.99 L 112.45 112.77 L 113.83 112.55 L 115.25 112.38 L 116.64 112.24 L 118.14 112.2 L 119.5 112.17 L 120.86 112.17 L 122.45 112.19 L 124.24 112.31 L 126.14 112.46 L 128.19 112.71 L 130.29 113.05 L 132.28 113.43 L 134.15 113.87 L 135.82 114.33 L 137.25 114.88 L 138.38 115.38 L 139.28 115.89 L 140.38 116.94 L 140.08 118.44 L 138.91 119.24 L 137.46 119.83 L 135.87 120.37 L 134.55 120.74 L 131.31 121.02 L 130.98 120.97 L 130.69 120.82 L 130.46 120.58 L 130.32 120.27 L 130.29 119.95 L 130.36 119.62 L 130.53 119.34 L 130.78 119.12 L 131.09 119 L 131.42 118.98 L 131.74 119.07 L 132.02 119.26 L 132.21 119.52 L 132.32 119.83 L 132.32 120.16 L 132.21 120.48 L 132.02 120.74 L 131.74 120.93 L 131.42 121.02 L 131.09 121 L 130.78 120.88 L 130.53 120.66 L 130.36 120.38 L 130.29 120.06 L 130.32 119.73 L 130.46 119.43 L 130.69 119.18 L 130.98 119.03 L 131.31 118.98 L 131.31 118.98 L 134.64 118.66 L 136.06 118.28 L 137.52 117.83 L 138.99 117.53 L 137.78 116.59 L 136.77 116.04 L 135.5 115.47 L 133.88 114.99 L 132.08 114.57 L 130.13 114.26 L 128.07 114.01 L 126.06 113.89 L 124.18 113.84 L 122.46 113.82 L 120.88 113.85 L 119.53 113.87 L 118.22 113.9 L 116.83 113.97 L 115.47 114.13 L 114.15 114.32 L 112.78 114.59 L 111.42 114.87 L 110.08 115.15 L 108.76 115.42 L 107.53 115.67 L 106.4 115.88 L 105.4 115.98 L 104.38 116.01 L 103.38 115.91 L 101.49 115.39 L 100.52 115.01 L 98.85 113.92 L 97.7 112.61 L 97.15 111.36 L 97.04 110.2 L 97.51 109.18 L 98.43 108.5 L 99.42 108.25 L 100.92 108.11 L 102 108.13 L 102.21 108.15 L 102.41 108.23 L 102.58 108.35 L 102.72 108.5 L 102.82 108.69 L 102.87 108.89 L 102.87 109.1 L 102.82 109.31 L 102.72 109.5 L 102.58 109.65 L 102.41 109.77 L 102.21 109.85 L 102 109.87 L 102 109.87" fill="rgb(0, 0, 0)" stroke="rgb(0, 0, 0)" stroke-miterlimit="10" pointer-events="all"/><path d="M 102 125.89 L 101.06 125.91 L 99.8 125.95 L 98.36 126.28 L 97.18 126.92 L 96.33 127.79 L 97.53 127.81 L 98.89 127.8 L 100.45 127.79 L 101.92 127.81 L 103.34 127.82 L 105.1 127.85 L 107.1 127.89 L 108.26 127.92 L 109.4 127.94 L 110.68 127.98 L 112.02 128.01 L 113.35 128.11 L 114.78 128.24 L 116.31 128.4 L 117.93 128.64 L 119.55 128.9 L 121.11 129.17 L 122.63 129.42 L 124.17 129.76 L 125.65 130.04 L 127.24 130.4 L 128.72 130.76 L 130.11 131.04 L 131.37 131.3 L 132.61 131.54 L 133.8 131.77 L 134.89 132.01 L 135.88 132.24 L 137.31 132.51 L 138.51 132.99 L 139.35 133.68 L 139.81 134.59 L 139.67 135.67 L 139.04 136.48 L 137.92 137.03 L 136.69 137.13 L 135.68 137.16 L 134.69 137.19 L 131.32 137.2 L 130.93 137.14 L 130.59 136.96 L 130.32 136.67 L 130.16 136.32 L 130.11 135.94 L 130.2 135.55 L 130.4 135.22 L 130.7 134.97 L 131.06 134.83 L 131.44 134.81 L 131.82 134.91 L 132.14 135.13 L 132.38 135.44 L 132.5 135.81 L 132.5 136.19 L 132.38 136.56 L 132.14 136.87 L 131.82 137.09 L 131.44 137.19 L 131.06 137.17 L 130.7 137.03 L 130.4 136.78 L 130.2 136.44 L 130.11 136.07 L 130.16 135.68 L 130.32 135.33 L 130.59 135.04 L 130.93 134.86 L 131.32 134.8 L 131.32 134.8 L 134.94 134.82 L 136.18 134.85 L 137.28 134.46 L 136.23 134.1 L 134.52 133.62 L 133.46 133.35 L 132.29 133.08 L 131.04 132.81 L 129.8 132.52 L 128.37 132.21 L 126.93 131.86 L 125.37 131.54 L 123.85 131.27 L 122.38 130.96 L 120.86 130.73 L 119.32 130.51 L 117.73 130.32 L 116.17 130.18 L 114.64 130.1 L 113.24 130.04 L 112.02 129.99 L 110.68 130.02 L 109.4 130.06 L 108.26 130.08 L 107.1 130.11 L 105.1 130.15 L 103.34 130.18 L 101.92 130.19 L 100.45 130.21 L 98.89 130.2 L 97.46 130.17 L 96.07 129.98 L 95.11 129.5 L 94.37 128.57 L 94.31 127.11 L 95.06 125.93 L 96.06 125.12 L 97.27 124.52 L 98.51 124.2 L 99.8 124.05 L 101.06 124.09 L 102 124.11 L 102.22 124.13 L 102.42 124.21 L 102.59 124.33 L 102.73 124.49 L 102.83 124.68 L 102.88 124.89 L 102.88 125.11 L 102.83 125.32 L 102.73 125.51 L 102.59 125.67 L 102.42 125.79 L 102.21 125.86 L 102 125.89 L 102 125.89" fill="rgb(0, 0, 0)" stroke="rgb(0, 0, 0)" stroke-miterlimit="10" pointer-events="all"/><path d="M 101.03 140.61 L 99.64 140.73 L 98.57 140.94 L 97.11 141.23 L 95.26 141.59 L 93.09 142.01 L 90.75 142.53 L 88.15 143.11 L 85.7 143.7 L 83.22 144.31 L 80.71 144.85 L 78.19 145.3 L 75.74 145.63 L 73.35 145.99 L 70.37 146.29 L 67.23 146.55 L 63.96 146.81 L 60.47 146.99 L 57.05 147.14 L 53.58 147.28 L 50.02 147.41 L 46.33 147.39 L 43.11 147.31 L 39.86 147.13 L 36.69 146.91 L 33.75 146.67 L 30.92 146.43 L 28.35 146.18 L 25.89 145.93 L 23.71 145.76 L 21.7 145.61 L 19.77 145.48 L 17.79 145.35 L 15.8 145.15 L 13.72 144.92 L 11.45 144.53 L 9.33 144.07 L 7.27 143.59 L 5.32 143.1 L 3.5 142.56 L 0.64 141.76 L 0.47 141.69 L 0.33 141.56 L 0.24 141.4 L 0.2 141.21 L 0.22 141.02 L 0.31 140.85 L 0.44 140.72 L 0.61 140.64 L 0.8 140.61 L 0.98 140.64 L 1.15 140.74 L 1.27 140.88 L 1.34 141.05 L 1.36 141.24 L 1.31 141.42 L 1.21 141.58 L 1.07 141.7 L 0.89 141.77 L 0.71 141.77 L 0.52 141.72 L 0.37 141.61 L 0.26 141.45 L 0.21 141.27 L 0.21 141.08 L 0.27 140.91 L 0.39 140.76 L 0.55 140.66 L 0.74 140.61 L 0.92 140.63 L 0.92 140.63 L 3.81 141.57 L 5.56 142.13 L 7.5 142.62 L 9.54 143.09 L 11.62 143.54 L 13.83 143.92 L 15.9 144.14 L 17.86 144.34 L 19.84 144.47 L 21.77 144.61 L 23.79 144.76 L 25.99 144.94 L 28.44 145.19 L 31.01 145.43 L 33.83 145.68 L 36.76 145.91 L 39.92 146.13 L 43.14 146.31 L 46.34 146.39 L 49.98 146.4 L 53.54 146.27 L 57 146.14 L 60.42 145.99 L 63.88 145.81 L 67.14 145.55 L 70.27 145.28 L 73.2 144.98 L 75.6 144.62 L 78 144.28 L 80.48 143.83 L 82.96 143.28 L 85.44 142.64 L 87.91 142.01 L 90.48 141.39 L 92.84 140.8 L 94.98 140.3 L 96.85 139.85 L 98.37 139.56 L 99.56 139.43 L 100.96 139.39 L 101.12 139.4 L 101.26 139.44 L 101.38 139.52 L 101.48 139.62 L 101.56 139.75 L 101.6 139.89 L 101.61 140.04 L 101.58 140.18 L 101.52 140.32 L 101.43 140.43 L 101.32 140.53 L 101.19 140.59 L 101.03 140.61 L 101.03 140.61" fill="rgb(0, 0, 0)" stroke="rgb(0, 0, 0)" stroke-miterlimit="10" pointer-events="all"/><path d="M 48.41 49.24 L 49.21 49.66 L 50.47 50.33 L 51.77 51.11 L 53.52 52.35 L 54.45 52.97 L 55.49 53.69 L 56.54 54.45 L 57.51 55.11 L 58.51 55.75 L 59.42 56.41 L 60.57 57.2 L 61.74 58.07 L 62.43 58.9 L 62.99 60.53 L 62.28 61.81 L 60.91 62.71 L 59.18 63.62 L 58.25 64.14 L 57.28 64.71 L 56.18 65.31 L 54.63 66.5 L 53.39 67.69 L 52.03 70.09 L 51.91 70.4 L 51.7 70.66 L 51.42 70.84 L 51.1 70.92 L 50.77 70.89 L 50.46 70.75 L 50.22 70.53 L 50.05 70.24 L 49.99 69.91 L 50.04 69.58 L 50.19 69.29 L 50.43 69.05 L 50.73 68.91 L 51.06 68.86 L 51.38 68.93 L 51.67 69.1 L 51.89 69.35 L 52.02 69.65 L 52.05 69.98 L 51.96 70.31 L 51.78 70.58 L 51.52 70.79 L 51.21 70.9 L 50.87 70.91 L 50.56 70.81 L 50.29 70.62 L 50.1 70.34 L 50 70.03 L 50.01 69.69 L 50.01 69.69 L 51.97 66.22 L 53.31 64.97 L 54.19 64.21 L 55.15 63.53 L 56.18 62.91 L 57.16 62.28 L 58.15 61.67 L 59.79 60.75 L 60.82 60.44 L 60.27 59.49 L 59.45 58.78 L 58.31 57.91 L 57.51 57.3 L 56.49 56.65 L 55.45 55.97 L 54.44 55.27 L 53.38 54.58 L 52.38 53.92 L 50.72 52.74 L 49.46 51.9 L 48.37 51.21 L 47.59 50.76 L 47.42 50.64 L 47.28 50.48 L 47.19 50.29 L 47.14 50.09 L 47.15 49.88 L 47.2 49.68 L 47.3 49.5 L 47.44 49.35 L 47.61 49.23 L 47.81 49.16 L 48.01 49.14 L 48.22 49.17 L 48.41 49.24 L 48.41 49.24" fill="rgb(0, 0, 0)" stroke="rgb(0, 0, 0)" stroke-miterlimit="10" pointer-events="all"/><path d="M 65.86 138.23 L 65.66 139.03 L 65.11 140.24 L 64.55 141.12 L 63.51 142.29 L 62.55 143.46 L 61.45 144.75 L 60.14 145.92 L 59.04 146.82 L 57.98 147.31 L 57.91 147.32 L 57.64 147.35 L 57.38 147.31 L 57.13 147.21 L 56.92 147.05 L 56.74 146.84 L 56.63 146.6 L 56.57 146.34 L 56.58 146.07 L 56.65 145.81 L 56.78 145.58 L 56.97 145.39 L 57.19 145.24 L 57.44 145.15 L 58.92 145.2 L 60.14 145.77 L 61.65 146.82 L 62.45 147.56 L 63.21 148.31 L 64.51 149.68 L 65.53 150.91 L 66.2 151.72 L 67.26 152.6 L 70.23 153.82 L 70.59 153.92 L 70.9 154.12 L 71.13 154.41 L 71.26 154.76 L 71.26 155.13 L 71.15 155.49 L 70.93 155.79 L 70.63 156 L 70.27 156.11 L 69.9 156.09 L 69.55 155.96 L 69.27 155.73 L 69.07 155.41 L 68.98 155.05 L 69.01 154.68 L 69.16 154.34 L 69.41 154.06 L 69.74 153.89 L 70.1 153.82 L 70.47 153.87 L 70.8 154.04 L 71.07 154.3 L 71.23 154.64 L 71.28 155.01 L 71.2 155.37 L 71.02 155.7 L 70.74 155.94 L 70.39 156.08 L 70.02 156.11 L 70.02 156.11 L 66.42 154.75 L 65.33 153.94 L 64.53 153.18 L 63.82 152.27 L 62.89 151.13 L 61.69 149.89 L 60.29 148.63 L 59.04 147.79 L 57.91 147.32 L 57.64 147.35 L 57.38 147.31 L 57.13 147.21 L 56.92 147.05 L 56.74 146.84 L 56.63 146.6 L 56.57 146.34 L 56.58 146.07 L 56.65 145.81 L 56.78 145.58 L 56.97 145.39 L 57.19 145.24 L 57.44 145.15 L 58.18 144.84 L 59.36 143.81 L 60.44 142.76 L 61.48 141.51 L 62.56 140.35 L 63.24 139.56 L 63.91 138.55 L 64.14 137.77 L 64.22 137.57 L 64.35 137.4 L 64.51 137.26 L 64.71 137.16 L 64.91 137.12 L 65.13 137.12 L 65.33 137.18 L 65.52 137.28 L 65.68 137.43 L 65.79 137.61 L 65.87 137.81 L 65.89 138.02 L 65.86 138.23 L 65.86 138.23" fill="rgb(0, 0, 0)" stroke="rgb(0, 0, 0)" stroke-miterlimit="10" pointer-events="all"/><path d="M 114.82 162.5 Q 114.82 162.5 114.54 29.74" fill="none" stroke="rgb(0, 0, 0)" stroke-miterlimit="10" pointer-events="stroke"/><path d="M 122.07 43.6 L 114.54 28.62 L 107.07 43.63" fill="none" stroke="rgb(0, 0, 0)" stroke-miterlimit="10" pointer-events="all"/><path d="M 287.11 32 Q 287.11 32 287 165.76" fill="none" stroke="rgb(0, 0, 0)" stroke-miterlimit="10" pointer-events="stroke"/><path d="M 279.51 151.88 L 287 166.88 L 294.51 151.89" fill="none" stroke="rgb(0, 0, 0)" stroke-miterlimit="10" pointer-events="all"/><path d="M 392 62.66 L 390.19 62.64 L 388.86 62.68 L 387.5 62.71 L 385.96 62.64 L 384.3 62.53 L 382.52 62.39 L 380.69 62.24 L 378.77 62.09 L 376.8 61.93 L 375.02 61.81 L 373.26 61.69 L 371.52 61.65 L 369.86 61.64 L 368.28 61.65 L 366.9 61.67 L 365.73 61.71 L 364.59 61.75 L 363.46 61.77 L 362.34 61.8 L 361.28 61.82 L 359.42 61.88 L 357.48 61.91 L 355.73 61.94 L 353.76 62.02 L 352.51 62.11 L 351.11 62.2 L 349.73 62.3 L 348.32 62.46 L 346.77 62.66 L 344.96 62.9 L 343.04 63.19 L 341.07 63.49 L 339.08 63.82 L 337 64.17 L 334.9 64.52 L 332.69 64.81 L 330.38 65.07 L 328.17 65.26 L 326.01 65.4 L 323.92 65.46 L 321.81 65.49 L 319.76 65.5 L 317.74 65.5 L 315.87 65.52 L 314.22 65.55 L 312.66 65.59 L 311.35 65.64 L 310.21 65.68 L 308.62 65.77 L 307.59 65.83 L 306.41 65.9 L 305.32 65.96 L 301.32 66.02 L 301 65.96 L 300.7 65.81 L 300.48 65.57 L 300.34 65.27 L 300.3 64.94 L 300.38 64.62 L 300.54 64.34 L 300.79 64.13 L 301.1 64.01 L 301.43 63.99 L 301.74 64.08 L 302.01 64.26 L 302.22 64.52 L 302.32 64.84 L 302.32 65.16 L 302.22 65.48 L 302.01 65.74 L 301.74 65.92 L 301.43 66.01 L 301.1 65.99 L 300.79 65.87 L 300.54 65.66 L 300.38 65.38 L 300.3 65.06 L 300.34 64.73 L 300.48 64.43 L 300.7 64.19 L 301 64.04 L 301.32 63.98 L 301.32 63.98 L 305.32 64.04 L 306.41 64.09 L 307.59 64.17 L 308.62 64.23 L 310.21 64.32 L 311.35 64.36 L 312.66 64.41 L 314.22 64.44 L 315.87 64.48 L 317.74 64.49 L 319.75 64.49 L 321.79 64.47 L 323.89 64.44 L 325.93 64.37 L 328.08 64.22 L 330.26 64.02 L 332.54 63.74 L 334.7 63.43 L 336.8 63.03 L 338.86 62.63 L 340.84 62.22 L 342.79 61.8 L 344.71 61.39 L 346.53 61.01 L 348.09 60.75 L 349.57 60.52 L 350.96 60.38 L 352.36 60.24 L 353.64 60.12 L 355.73 60.06 L 357.48 60.09 L 359.42 60.12 L 361.28 60.18 L 362.34 60.2 L 363.46 60.23 L 364.6 60.26 L 365.73 60.29 L 366.91 60.33 L 368.29 60.37 L 369.87 60.4 L 371.56 60.43 L 373.34 60.49 L 375.1 60.62 L 376.87 60.75 L 378.84 60.84 L 380.78 60.94 L 382.61 61.03 L 384.39 61.12 L 386.02 61.22 L 387.5 61.29 L 388.86 61.32 L 390.19 61.36 L 392 61.34 L 392.16 61.36 L 392.3 61.42 L 392.43 61.51 L 392.54 61.63 L 392.62 61.77 L 392.65 61.92 L 392.65 62.08 L 392.62 62.23 L 392.54 62.37 L 392.43 62.49 L 392.3 62.58 L 392.16 62.64 L 392 62.66 L 392 62.66" fill="rgb(0, 0, 0)" stroke="rgb(0, 0, 0)" stroke-miterlimit="10" pointer-events="all"/><path d="M 274 66.89 L 273.21 66.91 L 271.82 67.13 L 270.83 67.71 L 269.9 68.63 L 270.29 69.79 L 271.46 70.34 L 273.03 70.77 L 274.67 70.88 L 276.33 70.9 L 277.36 70.92 L 278.52 70.95 L 279.73 70.97 L 281.04 71.01 L 282.52 71.05 L 284.24 71.13 L 286.4 71.23 L 288.68 71.3 L 291.09 71.36 L 293.48 71.4 L 296.09 71.5 L 298.57 71.62 L 300.78 71.75 L 302.87 71.88 L 304.62 71.98 L 306.19 72.15 L 307.46 72.33 L 308.57 72.61 L 309.99 73.1 L 311.28 73.82 L 312.12 74.9 L 312.68 76.15 L 312.99 77.43 L 312.62 78.9 L 311.61 79.73 L 310.48 80.31 L 308.99 80.72 L 307.79 81 L 306.63 81.12 L 303.31 81.15 L 302.95 81.09 L 302.62 80.91 L 302.36 80.64 L 302.21 80.31 L 302.17 79.94 L 302.25 79.58 L 302.44 79.26 L 302.72 79.02 L 303.07 78.88 L 303.44 78.86 L 303.8 78.96 L 304.1 79.17 L 304.33 79.46 L 304.45 79.81 L 304.45 80.19 L 304.33 80.54 L 304.1 80.83 L 303.8 81.04 L 303.44 81.14 L 303.07 81.12 L 302.72 80.98 L 302.44 80.74 L 302.25 80.42 L 302.17 80.06 L 302.21 79.69 L 302.36 79.36 L 302.62 79.09 L 302.95 78.91 L 303.32 78.85 L 303.31 78.85 L 306.51 78.84 L 307.88 78.68 L 309.12 78.44 L 310.07 78.11 L 310.98 77.56 L 310.77 76.42 L 310.27 75.16 L 309.38 74.51 L 308.17 73.93 L 307.23 73.58 L 306.04 73.31 L 304.54 73.08 L 302.8 72.94 L 300.72 72.83 L 298.53 72.73 L 296.07 72.65 L 293.48 72.6 L 291.09 72.64 L 288.68 72.7 L 286.4 72.77 L 284.24 72.87 L 282.52 72.94 L 281.04 72.99 L 279.73 73.03 L 278.52 73.05 L 277.36 73.07 L 275.4 73.09 L 273.69 73.04 L 272.59 72.95 L 270.64 72.46 L 268.94 71.65 L 267.73 70.54 L 267.33 68.92 L 267.7 67.94 L 268.81 66.71 L 269.77 65.94 L 270.77 65.43 L 272 65.12 L 273.21 65.09 L 274 65.11 L 274.21 65.14 L 274.41 65.21 L 274.59 65.34 L 274.73 65.5 L 274.83 65.68 L 274.88 65.89 L 274.88 66.11 L 274.83 66.31 L 274.73 66.5 L 274.59 66.66 L 274.41 66.79 L 274.21 66.86 L 274 66.89 L 274 66.89" fill="rgb(0, 0, 0)" stroke="rgb(0, 0, 0)" stroke-miterlimit="10" pointer-events="all"/><path d="M 274 83.86 L 272.92 83.87 L 270.97 83.91 L 269.98 83.99 L 268.88 84.15 L 267.82 84.42 L 266.73 84.75 L 265.53 85.51 L 265.66 86.62 L 266.68 87.17 L 268.06 87.69 L 269.37 87.89 L 270.93 87.93 L 272.51 87.93 L 273.58 87.95 L 275.05 88 L 276.82 88.09 L 278.79 88.2 L 280.95 88.36 L 283.22 88.52 L 285.86 88.75 L 288.56 89.01 L 291.23 89.34 L 293.8 89.71 L 296.41 90.15 L 298.97 90.64 L 301.49 91.13 L 304.07 91.63 L 306.39 92.14 L 308.67 92.64 L 310.8 93.14 L 312.66 93.63 L 314.2 94.1 L 315.46 94.57 L 316.49 95.05 L 317.91 96.1 L 318.59 97.66 L 318.15 99.46 L 316.94 100.88 L 315.4 102 L 314.47 102.41 L 312.77 102.86 L 311.46 103.01 L 310.46 103.06 L 309.28 103.1 L 308.19 103.14 L 306.87 103.17 L 302.22 101.95 L 302.05 101.61 L 301.99 101.23 L 302.06 100.85 L 302.26 100.51 L 302.54 100.25 L 302.89 100.1 L 303.28 100.07 L 303.65 100.16 L 303.98 100.37 L 304.22 100.67 L 304.35 101.03 L 304.36 101.41 L 304.25 101.78 L 304.03 102.09 L 303.72 102.32 L 303.35 102.43 L 302.96 102.42 L 302.6 102.29 L 302.3 102.05 L 302.09 101.73 L 302 101.35 L 302.03 100.97 L 302.18 100.62 L 302.43 100.33 L 302.77 100.14 L 303.15 100.06 L 303.53 100.12 L 303.87 100.29 L 304.15 100.56 L 304.15 100.56 L 306.52 100.82 L 307.86 100.86 L 308.98 100.89 L 310.04 100.92 L 311.35 100.95 L 312.35 100.9 L 313.73 100.6 L 315.05 99.99 L 316.16 99.1 L 316.85 98.28 L 316.84 97.16 L 315.87 96.22 L 315 95.69 L 313.84 95.16 L 312.38 94.63 L 310.57 94.12 L 308.46 93.63 L 306.18 93.13 L 303.87 92.64 L 301.29 92.15 L 298.78 91.67 L 296.24 91.2 L 293.66 90.78 L 291.1 90.45 L 288.46 90.16 L 285.77 89.97 L 283.17 89.83 L 280.9 89.79 L 278.79 89.8 L 276.82 89.9 L 275.05 90 L 273.58 90.06 L 272.51 90.07 L 270.89 90.05 L 269.16 89.99 L 267.33 89.65 L 265.7 88.98 L 264.81 88.48 L 264.01 87.8 L 263.48 86.82 L 263.42 85.78 L 263.75 84.8 L 265.15 83.47 L 266.2 83 L 267.37 82.65 L 268.61 82.34 L 269.85 82.16 L 270.97 82.09 L 272.92 82.13 L 274 82.14 L 274.21 82.17 L 274.4 82.24 L 274.57 82.36 L 274.7 82.51 L 274.8 82.7 L 274.85 82.9 L 274.85 83.1 L 274.8 83.3 L 274.7 83.49 L 274.57 83.64 L 274.4 83.76 L 274.21 83.83 L 274 83.86 L 274 83.86" fill="rgb(0, 0, 0)" stroke="rgb(0, 0, 0)" stroke-miterlimit="10" pointer-events="all"/><path d="M 274.52 103.72 L 273.74 104.31 L 272.6 105.21 L 271.59 106.01 L 270.87 106.72 L 272.43 107.1 L 273.67 107.5 L 275.12 107.93 L 276.73 108.37 L 278.51 108.74 L 280.33 109 L 282.11 109.19 L 283.7 109.26 L 285.17 109.27 L 286.51 109.26 L 287.87 109.25 L 289.35 109.32 L 290.94 109.5 L 292.52 109.81 L 294.2 110.25 L 295.86 110.73 L 297.49 111.23 L 299.41 111.92 L 301.31 112.67 L 303.07 113.42 L 304.5 114.07 L 305.68 114.61 L 306.62 115.13 L 308.12 116.27 L 308.75 117.59 L 308.58 118.91 L 307.99 120.01 L 307.16 120.9 L 303.09 122.01 L 302.76 121.96 L 302.47 121.81 L 302.25 121.57 L 302.11 121.27 L 302.07 120.95 L 302.14 120.63 L 302.31 120.35 L 302.56 120.13 L 302.87 120.01 L 303.19 119.99 L 303.51 120.08 L 303.78 120.26 L 303.97 120.52 L 304.08 120.84 L 304.08 121.16 L 303.98 121.47 L 303.78 121.73 L 303.51 121.92 L 303.19 122.01 L 302.87 121.99 L 302.56 121.87 L 302.31 121.66 L 302.14 121.37 L 302.07 121.06 L 302.11 120.73 L 302.24 120.43 L 302.47 120.19 L 302.76 120.04 L 303.08 119.99 L 303.08 119.99 L 305.55 119.57 L 306.47 118.88 L 307.09 117.94 L 306.53 116.86 L 305.1 115.8 L 303.95 115.19 L 302.61 114.5 L 300.89 113.79 L 299.01 113.14 L 297.1 112.55 L 295.47 112.09 L 293.85 111.64 L 292.24 111.26 L 290.77 110.99 L 289.27 110.82 L 287.87 110.74 L 286.5 110.72 L 285.14 110.69 L 283.64 110.65 L 281.98 110.58 L 280.17 110.46 L 278.25 110.31 L 276.34 110.07 L 274.66 109.75 L 273.11 109.42 L 271.7 109.05 L 270.4 108.56 L 269.45 107.92 L 268.88 106.98 L 269.47 105.23 L 270.41 104.43 L 271.47 103.68 L 272.67 102.84 L 273.48 102.28 L 273.66 102.18 L 273.87 102.12 L 274.09 102.11 L 274.29 102.16 L 274.49 102.26 L 274.65 102.39 L 274.78 102.57 L 274.86 102.77 L 274.89 102.98 L 274.87 103.19 L 274.8 103.4 L 274.68 103.57 L 274.52 103.72 L 274.52 103.72" fill="rgb(0, 0, 0)" stroke="rgb(0, 0, 0)" stroke-miterlimit="10" pointer-events="all"/><path d="M 274.07 121.88 L 273.14 121.97 L 272.14 122.42 L 271.43 123.23 L 271.09 124.2 L 271.13 125.24 L 271.15 126.25 L 271.66 127.17 L 272.83 127.48 L 273.8 127.73 L 275.03 127.77 L 276.39 127.77 L 277.46 127.77 L 278.5 127.77 L 280.08 127.51 L 281.18 127.27 L 282.31 127.02 L 283.49 126.82 L 284.61 126.78 L 285.62 126.77 L 286.71 126.77 L 288.16 126.79 L 289.97 126.83 L 291 126.85 L 292.08 126.88 L 293.26 126.92 L 295.19 127.2 L 297.42 127.53 L 300.04 127.92 L 303.14 128.33 L 306.77 128.81 L 310.76 129.31 L 315.03 129.83 L 319.58 130.41 L 323.73 130.88 L 327.79 131.3 L 331.53 131.62 L 334.85 131.91 L 337.89 132.1 L 340.63 132.26 L 343.08 132.39 L 345.41 132.45 L 347.48 132.48 L 349.71 132.49 L 352.32 132.49 L 355.15 132.5 L 358.02 132.5 L 361.1 132.5 L 364.35 132.5 L 367.82 132.5 L 371.45 132.5 L 375 132.5 L 378.45 132.5 L 381.86 132.5 L 385.31 132.5 L 388.59 132.5 L 391.92 132.5 L 395.07 132.57 L 397.99 132.67 L 400.79 132.77 L 405.46 133.25 L 405.62 133.3 L 405.75 133.4 L 405.84 133.53 L 405.88 133.69 L 405.87 133.85 L 405.81 134 L 405.7 134.12 L 405.57 134.21 L 405.42 134.24 L 405.25 134.23 L 405.1 134.16 L 404.99 134.05 L 404.91 133.91 L 404.88 133.75 L 404.91 133.59 L 404.99 133.45 L 405.1 133.33 L 405.25 133.26 L 405.4 133.25 L 405.57 133.28 L 405.7 133.36 L 405.81 133.48 L 405.87 133.63 L 405.88 133.8 L 405.84 133.95 L 405.75 134.09 L 405.62 134.18 L 405.47 134.24 L 405.31 134.24 L 405.31 134.24 L 400.74 133.77 L 397.95 133.67 L 395.04 133.57 L 391.92 133.5 L 388.59 133.5 L 385.31 133.5 L 381.86 133.5 L 378.45 133.5 L 375 133.5 L 371.45 133.5 L 367.82 133.5 L 364.35 133.5 L 361.1 133.5 L 358.02 133.5 L 355.15 133.5 L 352.32 133.5 L 349.71 133.49 L 347.47 133.48 L 345.38 133.46 L 343.03 133.4 L 340.57 133.27 L 337.83 133.12 L 334.75 132.93 L 331.43 132.66 L 327.69 132.34 L 323.61 131.94 L 319.44 131.5 L 314.89 130.95 L 310.61 130.49 L 306.62 130.05 L 303 129.66 L 299.86 129.38 L 297.27 129.17 L 295.05 129.09 L 293.26 129.08 L 292.08 129.12 L 291 129.15 L 289.08 129.19 L 287.38 129.22 L 286.13 129.23 L 284.65 129.23 L 283.38 129.28 L 282.25 129.53 L 281.1 129.78 L 279.88 130.04 L 278.5 130.23 L 277.46 130.23 L 276.39 130.23 L 274.98 130.22 L 273.88 130.17 L 272.7 129.96 L 271.7 129.69 L 270.58 129.32 L 269.59 128.62 L 268.93 127.48 L 268.85 126.24 L 268.88 125.21 L 268.96 123.95 L 269.4 122.7 L 269.92 121.73 L 270.76 120.99 L 271.65 120.5 L 272.99 120.18 L 273.94 120.12 L 274.14 120.13 L 274.35 120.19 L 274.53 120.3 L 274.69 120.45 L 274.8 120.63 L 274.87 120.83 L 274.88 121.04 L 274.84 121.25 L 274.76 121.44 L 274.63 121.61 L 274.47 121.75 L 274.28 121.84 L 274.07 121.88 L 274.07 121.88" fill="rgb(0, 0, 0)" stroke="rgb(0, 0, 0)" stroke-miterlimit="10" pointer-events="all"/><path d="M 372.41 119.51 L 371.35 120.4 L 370.49 121.15 L 369.47 121.98 L 368.3 122.85 L 367.03 123.83 L 365.53 125 L 363.94 126.27 L 362.23 127.59 L 360.5 128.94 L 358.82 130.23 L 357.32 131.36 L 355.98 132.42 L 354.85 133.34 L 354.04 134.04 L 352.95 134.83 L 352.51 135.06 L 352.33 135.12 L 352.14 135.12 L 351.96 135.09 L 351.79 135 L 351.64 134.89 L 351.53 134.74 L 351.45 134.56 L 351.42 134.37 L 351.44 134.19 L 351.49 134.01 L 351.59 133.85 L 351.73 133.72 L 351.89 133.62 L 353.1 133.26 L 354.72 133.37 L 356.55 134.1 L 357.49 134.67 L 358.39 135.28 L 359.28 135.89 L 360.19 136.62 L 361.08 137.36 L 361.89 138.02 L 362.67 138.66 L 363.93 139.64 L 364.98 140.4 L 365.88 140.88 L 367.01 141.45 L 371 143.72 L 371.25 143.95 L 371.42 144.26 L 371.48 144.6 L 371.43 144.94 L 371.27 145.25 L 371.02 145.49 L 370.71 145.64 L 370.37 145.68 L 370.03 145.61 L 369.73 145.44 L 369.5 145.17 L 369.37 144.86 L 369.35 144.51 L 369.44 144.18 L 369.63 143.89 L 369.9 143.68 L 370.22 143.56 L 370.57 143.55 L 370.9 143.66 L 371.18 143.87 L 371.37 144.15 L 371.47 144.48 L 371.46 144.83 L 371.33 145.15 L 371.11 145.42 L 370.82 145.6 L 370.48 145.68 L 370.14 145.64 L 369.82 145.5 L 369.82 145.5 L 366.1 143.38 L 364.87 142.72 L 363.76 142.03 L 362.71 141.19 L 361.44 140.14 L 360.67 139.49 L 359.87 138.82 L 359.01 138.11 L 358.18 137.46 L 357.32 136.86 L 356.49 136.29 L 354.98 135.42 L 353.52 134.91 L 352.51 135.06 L 352.33 135.12 L 352.14 135.12 L 351.96 135.09 L 351.79 135 L 351.64 134.89 L 351.53 134.74 L 351.45 134.56 L 351.42 134.37 L 351.44 134.19 L 351.49 134.01 L 351.59 133.85 L 351.73 133.72 L 351.89 133.62 L 352.17 133.54 L 353.22 132.99 L 354.1 132.36 L 355.27 131.52 L 356.65 130.47 L 358.14 129.36 L 359.79 128.05 L 361.49 126.67 L 363.12 125.3 L 364.66 123.95 L 366.12 122.68 L 367.41 121.64 L 368.55 120.82 L 369.58 120.03 L 370.5 119.33 L 371.59 118.49 L 371.73 118.41 L 371.88 118.36 L 372.03 118.35 L 372.19 118.38 L 372.33 118.44 L 372.46 118.53 L 372.55 118.66 L 372.62 118.8 L 372.65 118.95 L 372.64 119.11 L 372.6 119.26 L 372.52 119.4 L 372.41 119.51 L 372.41 119.51" fill="rgb(0, 0, 0)" stroke="rgb(0, 0, 0)" stroke-miterlimit="10" pointer-events="all"/><path d="M 351.84 47.81 L 352.15 49.3 L 352.72 50.93 L 353.5 52.45 L 354.55 54.01 L 355.65 55.51 L 356.78 57 L 357.33 57.87 L 357.77 58.86 L 357.99 60.02 L 358 61.24 L 357.75 62.51 L 357.42 63.75 L 356.96 64.98 L 356.47 66.14 L 355.78 67.41 L 355.14 68.63 L 353.31 72.01 L 353.13 72.23 L 352.89 72.37 L 352.61 72.43 L 352.33 72.4 L 352.07 72.28 L 351.87 72.09 L 351.74 71.84 L 351.69 71.56 L 351.74 71.28 L 351.87 71.04 L 352.07 70.84 L 352.33 70.72 L 352.61 70.69 L 352.88 70.75 L 353.13 70.9 L 353.31 71.11 L 353.41 71.37 L 353.43 71.66 L 353.35 71.93 L 353.2 72.16 L 352.97 72.33 L 352.7 72.42 L 352.42 72.42 L 352.15 72.33 L 351.93 72.16 L 351.77 71.93 L 351.7 71.66 L 351.71 71.38 L 351.81 71.11 L 351.81 71.11 L 353.54 67.81 L 354.15 66.56 L 354.72 65.43 L 355.16 64.32 L 355.54 63.26 L 355.82 62.13 L 356.03 60.34 L 355.66 58.91 L 354.67 57.41 L 353.55 55.86 L 352.45 54.2 L 351.86 53.3 L 351.06 51.53 L 350.51 49.66 L 350.16 48.19 L 350.14 47.98 L 350.17 47.77 L 350.24 47.58 L 350.37 47.41 L 350.53 47.28 L 350.71 47.19 L 350.92 47.14 L 351.12 47.14 L 351.33 47.2 L 351.51 47.3 L 351.66 47.44 L 351.77 47.62 L 351.84 47.81 L 351.84 47.81" fill="rgb(0, 0, 0)" stroke="rgb(0, 0, 0)" stroke-miterlimit="10" pointer-events="all"/></g></svg>